<svg width="83" height="80" viewBox="0 0 83 80" fill="none" xmlns="http://www.w3.org/2000/svg">
<path d="M82.2344 5.94847V44.756C82.2344 46.2263 81.6503 47.6364 80.6106 48.6761C79.5709 49.7158 78.1608 50.2999 76.6904 50.2999H37.8829C36.4126 50.2999 35.0025 49.7158 33.9628 48.6761C32.9231 47.6364 32.339 46.2263 32.339 44.756V5.94847C32.339 4.47813 32.9231 3.06801 33.9628 2.02832C35.0025 0.988631 36.4126 0.404541 37.8829 0.404541H76.6904C78.1608 0.404541 79.5709 0.988631 80.6106 2.02832C81.6503 3.06801 82.2344 4.47813 82.2344 5.94847ZM28.6431 46.604V26.2762C28.6431 25.296 28.2537 24.3559 27.5605 23.6628C26.8674 22.9697 25.9273 22.5803 24.9471 22.5803H6.46733C4.99699 22.5803 3.58687 23.1644 2.54718 24.204C1.50749 25.2437 0.923401 26.6539 0.923401 28.1242V46.604C0.923401 47.5842 1.3128 48.5243 2.00592 49.2174C2.69905 49.9105 3.63913 50.2999 4.61935 50.2999H24.9471C25.9273 50.2999 26.8674 49.9105 27.5605 49.2174C28.2537 48.5243 28.6431 47.5842 28.6431 46.604ZM32.339 57.6918V76.1716C32.339 77.1518 32.7284 78.0919 33.4215 78.785C34.1146 79.4781 35.0547 79.8675 36.035 79.8675H54.5147C55.9851 79.8675 57.3952 79.2834 58.4349 78.2438C59.4746 77.2041 60.0587 75.794 60.0587 74.3236V57.6918C60.0587 56.7116 59.6693 55.7715 58.9761 55.0784C58.283 54.3853 57.3429 53.9959 56.3627 53.9959H36.035C35.0547 53.9959 34.1146 54.3853 33.4215 55.0784C32.7284 55.7715 32.339 56.7116 32.339 57.6918ZM24.9471 53.9959H4.61935C3.63913 53.9959 2.69905 54.3853 2.00592 55.0784C1.3128 55.7715 0.923401 56.7116 0.923401 57.6918V74.3236C0.923401 75.794 1.50749 77.2041 2.54718 78.2438C3.58687 79.2834 4.99699 79.8675 6.46733 79.8675H24.9471C25.9273 79.8675 26.8674 79.4781 27.5605 78.785C28.2537 78.0919 28.6431 77.1518 28.6431 76.1716V57.6918C28.6431 56.7116 28.2537 55.7715 27.5605 55.0784C26.8674 54.3853 25.9273 53.9959 24.9471 53.9959Z" fill="#85D192"/>
</svg>
