<svg width="92" height="93" viewBox="0 0 92 93" fill="none" xmlns="http://www.w3.org/2000/svg">
<path d="M86.1771 0.812744H27.6286C26.1728 0.812744 24.7767 1.39104 23.7473 2.42041C22.7179 3.44979 22.1396 4.84592 22.1396 6.30167V70.3392H5.67286C4.2171 70.3392 2.82097 70.9175 1.7916 71.9468C0.762226 72.9762 0.183929 74.3723 0.183929 75.8281V79.4874C0.183929 82.8841 1.53329 86.1418 3.93516 88.5437C6.33703 90.9455 9.59467 92.2949 12.9914 92.2949H78.8586C82.2553 92.2949 85.513 90.9455 87.9148 88.5437C90.3167 86.1418 91.6661 82.8841 91.6661 79.4874V6.30167C91.6661 4.84592 91.0878 3.44979 90.0584 2.42041C89.029 1.39104 87.6329 0.812744 86.1771 0.812744ZM12.9914 88.6356C10.5652 88.6356 8.23829 87.6718 6.52267 85.9562C4.80704 84.2405 3.84322 81.9136 3.84322 79.4874V75.8281C3.84322 75.3428 4.03598 74.8775 4.37911 74.5343C4.72223 74.1912 5.18761 73.9985 5.67286 73.9985H64.2214C64.7067 73.9985 65.1721 74.1912 65.5152 74.5343C65.8583 74.8775 66.0511 75.3428 66.0511 75.8281V79.4874C66.0532 81.1925 66.3958 82.8799 67.0587 84.4508C67.7216 86.0218 68.6916 87.4445 69.9116 88.6356H12.9914ZM88.0068 79.4874C88.0068 81.9136 87.043 84.2405 85.3273 85.9562C83.6117 87.6718 81.2848 88.6356 78.8586 88.6356C76.4323 88.6356 74.1054 87.6718 72.3898 85.9562C70.6742 84.2405 69.7104 81.9136 69.7104 79.4874V75.8281C69.7104 74.3723 69.1321 72.9762 68.1027 71.9468C67.0733 70.9175 65.6772 70.3392 64.2214 70.3392H25.7989V6.30167C25.7989 5.81642 25.9917 5.35104 26.3348 5.00792C26.6779 4.6648 27.1433 4.47203 27.6286 4.47203H86.1771C86.6624 4.47203 87.1278 4.6648 87.4709 5.00792C87.814 5.35104 88.0068 5.81642 88.0068 6.30167V79.4874ZM82.5179 64.8502C82.5179 65.3355 82.3251 65.8009 81.982 66.144C81.6388 66.4871 81.1735 66.6799 80.6882 66.6799H33.1175C32.6323 66.6799 32.1669 66.4871 31.8237 66.144C31.4806 65.8009 31.2879 65.3355 31.2879 64.8502C31.2879 64.365 31.4806 63.8996 31.8237 63.5565C32.1669 63.2134 32.6323 63.0206 33.1175 63.0206H80.6882C81.1735 63.0206 81.6388 63.2134 81.982 63.5565C82.3251 63.8996 82.5179 64.365 82.5179 64.8502ZM80.6882 11.7906H33.1175C32.6323 11.7906 32.1669 11.9834 31.8237 12.3265C31.4806 12.6696 31.2879 13.135 31.2879 13.6202C31.2879 14.8644 31.2879 35.8321 31.2879 35.576C31.2879 36.0612 31.4806 36.5266 31.8237 36.8697C32.1669 37.2128 32.6323 37.4056 33.1175 37.4056H80.6882C81.1735 37.4056 81.6388 37.2128 81.982 36.8697C82.3251 36.5266 82.5179 36.0612 82.5179 35.576C82.5179 34.3318 82.5179 13.3641 82.5179 13.6202C82.5179 13.135 82.3251 12.6696 81.982 12.3265C81.6388 11.9834 81.1735 11.7906 80.6882 11.7906ZM34.9471 16.4745L52.53 24.5981L34.9471 32.7217V16.4745ZM41.4424 15.4499H72.3633L56.9029 22.5855L41.4424 15.4499ZM56.9029 26.6107L72.3633 33.7463H41.4424L56.9029 26.6107ZM61.2757 24.5981L78.8586 16.4745V32.7217L61.2757 24.5981ZM33.1175 59.3613H44.0954C44.5806 59.3613 45.046 59.1686 45.3891 58.8254C45.7322 58.4823 45.925 58.0169 45.925 57.5317V42.8945C45.614 41.4857 44.7906 41.0649 44.0954 41.0649H33.1175C32.6323 41.0649 32.1669 41.2577 31.8237 41.6008C31.4806 41.9439 31.2879 42.4093 31.2879 42.8945V57.5317C31.3101 58.0098 31.51 58.4623 31.8485 58.8007C32.1869 59.1391 32.6394 59.339 33.1175 59.3613ZM36.7768 55.702L42.2657 48.3835V55.702H36.7768ZM40.4361 44.7242L34.9471 52.0427V44.7242H40.4361Z" fill="#151A6A"/>
</svg>
